<svg width="560px" height="186" viewBox="0 0 603 186" fill="none" xmlns="http://www.w3.org/2000/svg">
                    <path fill-rule="evenodd" clip-rule="evenodd" d="M-68.3925 37.0228C-58.8438 -59.4165 453.484 -245.555 548.596 -154.209C643.708 -62.8637 619.634 129.271 420.314 173.17C220.995 217.069 -77.9412 133.462 -68.3925 37.0228Z" fill="#2F3676"/>
                    <mask id="mask0_0_6" style="mask-type:luminance" maskUnits="userSpaceOnUse" x="-69" y="-179" width="672" height="365">
                        <path fill-rule="evenodd" clip-rule="evenodd" d="M-68.3925 37.0228C-58.8438 -59.4165 453.484 -245.555 548.596 -154.209C643.708 -62.8637 619.634 129.271 420.314 173.17C220.995 217.069 -77.9412 133.462 -68.3925 37.0228Z" fill="white"/>
                    </mask>
                    <g mask="url(#mask0_0_6)">
                        <path fill-rule="evenodd" clip-rule="evenodd" d="M524.941 59.9254C524.916 59.3203 524.857 58.7068 524.698 58.127C524.639 57.9169 524.521 57.7152 524.446 57.5051C524.269 57.026 524.11 56.5554 523.858 56.1184C523.723 55.8915 523.538 55.7066 523.379 55.4881C523.11 55.11 522.85 54.7234 522.522 54.3956C522.329 54.2107 522.077 54.0595 521.867 53.883C521.539 53.6141 521.237 53.3199 520.859 53.093C520.825 53.0678 520.783 53.0678 520.741 53.0426C520.716 53.0258 520.699 53.009 520.674 52.9922L445.25 11.0568C442.722 9.64494 439.648 9.65334 437.102 11.0484L361.326 52.9838C361.301 53.009 361.276 53.0426 361.234 53.0678C361.208 53.0762 361.175 53.0846 361.15 53.1014C360.856 53.2695 360.637 53.5132 360.36 53.7149C360.058 53.9418 359.738 54.1435 359.47 54.404C359.218 54.6646 359.024 54.9671 358.806 55.2612C358.579 55.5554 358.327 55.8159 358.142 56.1352C357.924 56.4966 357.806 56.9084 357.647 57.3034C357.529 57.5807 357.378 57.8412 357.302 58.1438C357.143 58.7068 357.092 59.3119 357.059 59.9086C357.05 60.0514 357 60.1775 357 60.3288V60.3372V60.3456V127.577C357 130.627 358.655 133.443 361.326 134.922L436.741 176.832L436.75 176.84C436.758 176.84 436.758 176.84 436.766 176.849L436.934 176.941C437.296 177.143 437.69 177.252 438.068 177.395C438.337 177.504 438.598 177.647 438.883 177.723C439.564 177.899 440.286 178 441 178C441.714 178 442.436 177.899 443.134 177.723C443.411 177.647 443.671 177.504 443.948 177.395C444.326 177.252 444.721 177.151 445.082 176.941L445.25 176.849C445.259 176.84 445.259 176.84 445.267 176.84L445.276 176.832L520.691 134.922C523.345 133.443 525 130.627 525 127.577V60.3456V60.3372V60.3288C525 60.1859 524.95 60.0683 524.941 59.9254ZM440.765 92.8854L382.687 60.3876L405.888 47.5465L463.294 80.3636L440.765 92.8854ZM441.168 28.0158L499.304 60.3456L480.455 70.8252L423.083 38.0249L441.168 28.0158ZM373.8 74.6742L432.6 107.584V155.318L373.8 122.627V74.6742ZM449.4 155.318L449.417 107.592L474.6 93.4905V119.173L491.4 110.769V84.0866L508.2 74.6826V122.627L449.4 155.318Z" fill="#191847"/>
                    </g>
                </svg>